<svg width="56" height="12" viewBox="0 0 56 12" fill="none" xmlns="http://www.w3.org/2000/svg">
<circle cx="6" cy="6" r="6" fill="#151875"/>
<path d="M6.68689 8.6391V6.01638H7.57169L7.70321 4.9895H6.68689V4.33542C6.68689 4.0391 6.76945 3.83622 7.19473 3.83622H7.73361V2.9207C7.47142 2.8926 7.20787 2.87903 6.94417 2.88006C6.16209 2.88006 5.62513 3.3575 5.62513 4.23398V4.98758H4.74609V6.01446H5.62705V8.6391H6.68689Z" fill="white"/>
<circle cx="50" cy="6" r="6" fill="#151875"/>
<g clip-path="url(#clip0_108_8629)">
<path d="M53.4856 3.49972C53.2184 3.61812 52.9314 3.69812 52.6296 3.73428C52.941 3.54797 53.1739 3.25475 53.285 2.90932C52.9925 3.08307 52.6723 3.20538 52.3384 3.27092C52.1139 3.03119 51.8165 2.8723 51.4925 2.81891C51.1684 2.76552 50.8358 2.82061 50.5462 2.97564C50.2566 3.13067 50.0264 3.37695 49.8911 3.67626C49.7559 3.97557 49.7233 4.31116 49.7983 4.63092C49.2055 4.60116 48.6257 4.44709 48.0963 4.17873C47.567 3.91036 47.1 3.53369 46.7256 3.07316C46.5976 3.29396 46.524 3.54996 46.524 3.8226C46.5239 4.06804 46.5843 4.30972 46.7 4.52619C46.8157 4.74267 46.983 4.92725 47.1871 5.06356C46.9504 5.05603 46.7189 4.99206 46.5119 4.877V4.8962C46.5119 5.24043 46.6309 5.57408 46.8489 5.84052C47.0669 6.10695 47.3703 6.28977 47.7077 6.35796C47.4881 6.41739 47.2579 6.42614 47.0344 6.38356C47.1296 6.67975 47.3151 6.93877 47.5648 7.12433C47.8145 7.3099 48.116 7.41273 48.4271 7.41844C47.899 7.83297 47.2469 8.05783 46.5756 8.05684C46.4566 8.05687 46.3378 8.04992 46.2197 8.03604C46.9012 8.47417 47.6944 8.7067 48.5045 8.7058C51.2469 8.7058 52.7461 6.43444 52.7461 4.46452C52.7461 4.40052 52.7445 4.33588 52.7416 4.27188C53.0333 4.06099 53.285 3.79984 53.485 3.50068L53.4856 3.49972Z" fill="white"/>
</g>
<circle cx="28" cy="6" r="6" fill="#FB2E86"/>
<path d="M30.6229 4.57764C30.6197 4.33528 30.5743 4.09533 30.4888 3.86852C30.4147 3.67721 30.3015 3.50347 30.1564 3.35839C30.0113 3.21331 29.8376 3.10009 29.6463 3.02596C29.4224 2.94192 29.1858 2.89647 28.9467 2.89156C28.6389 2.8778 28.5413 2.87396 27.7599 2.87396C26.9784 2.87396 26.8783 2.87396 26.5727 2.89156C26.3337 2.89651 26.0973 2.94195 25.8735 3.02596C25.6821 3.10004 25.5084 3.21324 25.3633 3.35832C25.2182 3.50341 25.105 3.67718 25.0309 3.86852C24.9467 4.09224 24.9013 4.32872 24.8968 4.56772C24.8831 4.87588 24.8789 4.97348 24.8789 5.75492C24.8789 6.53636 24.8789 6.6362 24.8968 6.94212C24.9016 7.18148 24.9467 7.41764 25.0309 7.64196C25.1051 7.83325 25.2184 8.00695 25.3635 8.15197C25.5087 8.29699 25.6824 8.41015 25.8738 8.4842C26.097 8.57163 26.3334 8.62032 26.573 8.6282C26.8811 8.64196 26.9787 8.64612 27.7602 8.64612C28.5416 8.64612 28.6418 8.64612 28.9474 8.6282C29.1865 8.62349 29.423 8.57815 29.6469 8.49412C29.8382 8.41991 30.0119 8.30666 30.1569 8.16159C30.302 8.01652 30.4153 7.84282 30.4895 7.65156C30.5736 7.42756 30.6187 7.1914 30.6235 6.95172C30.6373 6.64388 30.6415 6.54628 30.6415 5.76452C30.6408 4.98308 30.6408 4.88388 30.6229 4.57764ZM27.7579 7.23268C26.9407 7.23268 26.2786 6.5706 26.2786 5.75332C26.2786 4.93604 26.9407 4.27396 27.7579 4.27396C28.1503 4.27396 28.5266 4.42982 28.804 4.70726C29.0814 4.98469 29.2373 5.36097 29.2373 5.75332C29.2373 6.14567 29.0814 6.52195 28.804 6.79939C28.5266 7.07682 28.1503 7.23268 27.7579 7.23268ZM29.2962 4.5642C29.1051 4.5642 28.9512 4.40996 28.9512 4.21924C28.9512 4.17396 28.9601 4.12913 28.9775 4.08729C28.9948 4.04546 29.0202 4.00745 29.0522 3.97543C29.0842 3.94341 29.1222 3.91802 29.1641 3.90069C29.2059 3.88336 29.2507 3.87444 29.296 3.87444C29.3413 3.87444 29.3861 3.88336 29.428 3.90069C29.4698 3.91802 29.5078 3.94341 29.5398 3.97543C29.5719 4.00745 29.5973 4.04546 29.6146 4.08729C29.6319 4.12913 29.6408 4.17396 29.6408 4.21924C29.6408 4.40996 29.4866 4.5642 29.2962 4.5642Z" fill="white"/>
<path d="M27.7578 6.71416C28.2886 6.71416 28.7188 6.28392 28.7188 5.7532C28.7188 5.22247 28.2886 4.79224 27.7578 4.79224C27.2271 4.79224 26.7969 5.22247 26.7969 5.7532C26.7969 6.28392 27.2271 6.71416 27.7578 6.71416Z" fill="white"/>
<defs>
<clipPath id="clip0_108_8629">
<rect width="7.68" height="7.68" fill="white" transform="translate(45.9199 1.91998)"/>
</clipPath>
</defs>
</svg>
