<svg width="201" height="90" viewBox="0 0 201 90" fill="none" xmlns="http://www.w3.org/2000/svg">
<g filter="url(#filter0_d_91_694)">
<circle cx="45.552" cy="44.9609" r="17.1174" fill="white"/>
</g>
<g filter="url(#filter1_d_91_694)">
<circle cx="100.77" cy="44.9609" r="17.1174" fill="white"/>
</g>
<g filter="url(#filter2_d_91_694)">
<circle cx="155.987" cy="44.9609" r="17.1174" fill="white"/>
</g>
<path d="M37.2466 38.1852C37.2466 38.0113 37.3157 37.8445 37.4386 37.7215C37.5616 37.5986 37.7284 37.5295 37.9023 37.5295H38.3901C39.2207 37.5295 39.719 38.0881 40.0032 38.6075C40.1929 38.9537 40.3302 39.355 40.4377 39.7187C40.4668 39.7164 40.4959 39.7152 40.5251 39.7152H51.4518C52.1775 39.7152 52.702 40.4093 52.5027 41.1079L50.9045 46.7111C50.7612 47.2137 50.4581 47.6559 50.041 47.9708C49.6239 48.2857 49.1155 48.4561 48.5929 48.4562H43.3927C42.866 48.4562 42.3538 48.2832 41.9349 47.9638C41.516 47.6445 41.2136 47.1964 41.0742 46.6884L40.4097 44.2649L39.3081 40.551L39.3072 40.544C39.1709 40.0483 39.0432 39.584 38.8526 39.2378C38.6699 38.9012 38.523 38.8409 38.391 38.8409H37.9023C37.7284 38.8409 37.5616 38.7718 37.4386 38.6488C37.3157 38.5259 37.2466 38.3591 37.2466 38.1852ZM41.6818 43.9467L42.3384 46.3413C42.4695 46.8152 42.9005 47.1448 43.3927 47.1448H48.5929C48.8305 47.1448 49.0616 47.0674 49.2512 46.9243C49.4408 46.7812 49.5786 46.5802 49.6438 46.3518L51.1624 41.0266H40.818L41.6695 43.9003L41.6818 43.9467Z" fill="#535399"/>
<path d="M44.6778 51.0808C44.6778 51.5445 44.4935 51.9893 44.1656 52.3172C43.8377 52.6451 43.393 52.8293 42.9292 52.8293C42.4655 52.8293 42.0207 52.6451 41.6928 52.3172C41.3649 51.9893 41.1807 51.5445 41.1807 51.0808C41.1807 50.617 41.3649 50.1723 41.6928 49.8444C42.0207 49.5164 42.4655 49.3322 42.9292 49.3322C43.393 49.3322 43.8377 49.5164 44.1656 49.8444C44.4935 50.1723 44.6778 50.617 44.6778 51.0808ZM43.3664 51.0808C43.3664 50.9648 43.3203 50.8536 43.2383 50.7717C43.1563 50.6897 43.0452 50.6436 42.9292 50.6436C42.8133 50.6436 42.7021 50.6897 42.6201 50.7717C42.5381 50.8536 42.4921 50.9648 42.4921 51.0808C42.4921 51.1967 42.5381 51.3079 42.6201 51.3899C42.7021 51.4718 42.8133 51.5179 42.9292 51.5179C43.0452 51.5179 43.1563 51.4718 43.2383 51.3899C43.3203 51.3079 43.3664 51.1967 43.3664 51.0808Z" fill="#535399"/>
<path d="M50.7974 51.0808C50.7974 51.5445 50.6132 51.9893 50.2853 52.3172C49.9573 52.6451 49.5126 52.8293 49.0488 52.8293C48.5851 52.8293 48.1403 52.6451 47.8124 52.3172C47.4845 51.9893 47.3003 51.5445 47.3003 51.0808C47.3003 50.617 47.4845 50.1723 47.8124 49.8444C48.1403 49.5164 48.5851 49.3322 49.0488 49.3322C49.5126 49.3322 49.9573 49.5164 50.2853 49.8444C50.6132 50.1723 50.7974 50.617 50.7974 51.0808ZM49.486 51.0808C49.486 50.9648 49.4399 50.8536 49.3579 50.7717C49.276 50.6897 49.1648 50.6436 49.0488 50.6436C48.9329 50.6436 48.8217 50.6897 48.7397 50.7717C48.6578 50.8536 48.6117 50.9648 48.6117 51.0808C48.6117 51.1967 48.6578 51.3079 48.7397 51.3899C48.8217 51.4718 48.9329 51.5179 49.0488 51.5179C49.1648 51.5179 49.276 51.4718 49.3579 51.3899C49.4399 51.3079 49.486 51.1967 49.486 51.0808Z" fill="#535399"/>
<path d="M106.976 39.3922C106.097 38.5126 104.931 37.9778 103.691 37.8851C102.451 37.7923 101.218 38.1478 100.218 38.8869C99.164 38.1031 97.8523 37.7477 96.5469 37.8922C95.2415 38.0368 94.0394 38.6706 93.1826 39.666C92.3258 40.6614 91.8779 41.9445 91.9293 43.2568C91.9806 44.5692 92.5273 45.8134 93.4592 46.7388L99.6298 52.9094C99.7068 52.987 99.7984 53.0486 99.8993 53.0907C100 53.1327 100.108 53.1544 100.218 53.1544C100.327 53.1544 100.435 53.1327 100.536 53.0907C100.637 53.0486 100.729 52.987 100.806 52.9094L106.976 46.7388C107.459 46.2566 107.842 45.6839 108.103 45.0536C108.364 44.4233 108.499 43.7478 108.499 43.0655C108.499 42.3832 108.364 41.7077 108.103 41.0774C107.842 40.4471 107.459 39.8744 106.976 39.3922ZM105.809 45.571L100.218 51.1535L94.6271 45.571C94.1344 45.0763 93.7988 44.4471 93.6623 43.7624C93.5259 43.0776 93.5947 42.3678 93.8601 41.7221C94.1255 41.0763 94.5756 40.5232 95.1541 40.1323C95.7326 39.7414 96.4137 39.53 97.1119 39.5247C98.0446 39.527 98.9383 39.8993 99.5966 40.56C99.6736 40.6376 99.7652 40.6993 99.8662 40.7413C99.9671 40.7834 100.075 40.805 100.185 40.805C100.294 40.805 100.402 40.7834 100.503 40.7413C100.604 40.6993 100.696 40.6376 100.773 40.56C101.451 39.9727 102.326 39.6648 103.222 39.6986C104.119 39.7325 104.968 40.1056 105.6 40.7424C106.232 41.3792 106.598 42.2321 106.624 43.1286C106.65 44.0251 106.335 44.8981 105.742 45.571H105.809Z" fill="#535399"/>
<path d="M157.644 44.0406H155.435V41.8319C155.435 41.6367 155.357 41.4494 155.219 41.3113C155.081 41.1733 154.894 41.0957 154.699 41.0957C154.503 41.0957 154.316 41.1733 154.178 41.3113C154.04 41.4494 153.962 41.6367 153.962 41.8319V44.0406H151.754C151.558 44.0406 151.371 44.1182 151.233 44.2563C151.095 44.3943 151.017 44.5816 151.017 44.7769C151.017 44.9721 151.095 45.1594 151.233 45.2974C151.371 45.4355 151.558 45.5131 151.754 45.5131H153.962V47.7218C153.962 47.917 154.04 48.1043 154.178 48.2424C154.316 48.3804 154.503 48.458 154.699 48.458C154.894 48.458 155.081 48.3804 155.219 48.2424C155.357 48.1043 155.435 47.917 155.435 47.7218V45.5131H157.644C157.839 45.5131 158.026 45.4355 158.164 45.2974C158.302 45.1594 158.38 44.9721 158.38 44.7769C158.38 44.5816 158.302 44.3943 158.164 44.2563C158.026 44.1182 157.839 44.0406 157.644 44.0406ZM162.584 51.6164L159.852 48.9071C160.912 47.5851 161.426 45.9072 161.287 44.2183C161.148 42.5294 160.367 40.9579 159.105 39.8269C157.843 38.6959 156.196 38.0915 154.502 38.1379C152.808 38.1842 151.196 38.8778 149.998 40.0761C148.8 41.2744 148.106 42.8862 148.06 44.5802C148.013 46.2742 148.618 47.9216 149.749 49.1836C150.88 50.4456 152.451 51.2263 154.14 51.3652C155.829 51.5042 157.507 50.9907 158.829 49.9305L161.538 52.6398C161.607 52.7088 161.688 52.7636 161.778 52.801C161.868 52.8383 161.964 52.8576 162.061 52.8576C162.158 52.8576 162.254 52.8383 162.344 52.801C162.434 52.7636 162.515 52.7088 162.584 52.6398C162.716 52.5025 162.791 52.3191 162.791 52.1281C162.791 51.9372 162.716 51.7537 162.584 51.6164ZM154.699 49.9305C153.679 49.9305 152.683 49.6282 151.835 49.0619C150.988 48.4956 150.327 47.6908 149.937 46.7491C149.547 45.8074 149.445 44.7711 149.644 43.7714C149.843 42.7717 150.334 41.8534 151.054 41.1327C151.775 40.4119 152.693 39.9211 153.693 39.7223C154.693 39.5234 155.729 39.6255 156.671 40.0155C157.613 40.4056 158.417 41.0661 158.984 41.9137C159.55 42.7612 159.852 43.7576 159.852 44.7769C159.852 46.1437 159.309 47.4545 158.343 48.421C157.376 49.3875 156.065 49.9305 154.699 49.9305Z" fill="#535399"/>
<defs>
<filter id="filter0_d_91_694" x="0.825874" y="0.23481" width="89.4523" height="89.4522" filterUnits="userSpaceOnUse" color-interpolation-filters="sRGB">
<feFlood flood-opacity="0" result="BackgroundImageFix"/>
<feColorMatrix in="SourceAlpha" type="matrix" values="0 0 0 0 0 0 0 0 0 0 0 0 0 0 0 0 0 0 127 0" result="hardAlpha"/>
<feOffset/>
<feGaussianBlur stdDeviation="13.8043"/>
<feColorMatrix type="matrix" values="0 0 0 0 0 0 0 0 0 0 0 0 0 0 0 0 0 0 0.05 0"/>
<feBlend mode="normal" in2="BackgroundImageFix" result="effect1_dropShadow_91_694"/>
<feBlend mode="normal" in="SourceGraphic" in2="effect1_dropShadow_91_694" result="shape"/>
</filter>
<filter id="filter1_d_91_694" x="56.0436" y="0.23481" width="89.4523" height="89.4522" filterUnits="userSpaceOnUse" color-interpolation-filters="sRGB">
<feFlood flood-opacity="0" result="BackgroundImageFix"/>
<feColorMatrix in="SourceAlpha" type="matrix" values="0 0 0 0 0 0 0 0 0 0 0 0 0 0 0 0 0 0 127 0" result="hardAlpha"/>
<feOffset/>
<feGaussianBlur stdDeviation="13.8043"/>
<feColorMatrix type="matrix" values="0 0 0 0 0 0 0 0 0 0 0 0 0 0 0 0 0 0 0.05 0"/>
<feBlend mode="normal" in2="BackgroundImageFix" result="effect1_dropShadow_91_694"/>
<feBlend mode="normal" in="SourceGraphic" in2="effect1_dropShadow_91_694" result="shape"/>
</filter>
<filter id="filter2_d_91_694" x="111.261" y="0.23481" width="89.4523" height="89.4522" filterUnits="userSpaceOnUse" color-interpolation-filters="sRGB">
<feFlood flood-opacity="0" result="BackgroundImageFix"/>
<feColorMatrix in="SourceAlpha" type="matrix" values="0 0 0 0 0 0 0 0 0 0 0 0 0 0 0 0 0 0 127 0" result="hardAlpha"/>
<feOffset/>
<feGaussianBlur stdDeviation="13.8043"/>
<feColorMatrix type="matrix" values="0 0 0 0 0 0 0 0 0 0 0 0 0 0 0 0 0 0 0.05 0"/>
<feBlend mode="normal" in2="BackgroundImageFix" result="effect1_dropShadow_91_694"/>
<feBlend mode="normal" in="SourceGraphic" in2="effect1_dropShadow_91_694" result="shape"/>
</filter>
</defs>
</svg>
