<svg width="181" height="81" viewBox="0 0 181 81" fill="none" xmlns="http://www.w3.org/2000/svg">
<g filter="url(#filter0_d_91_1265)">
<circle cx="40.5" cy="40.5" r="15.5" fill="white"/>
</g>
<g filter="url(#filter1_d_91_1265)">
<circle cx="90.5" cy="40.5" r="15.5" fill="white"/>
</g>
<g filter="url(#filter2_d_91_1265)">
<circle cx="140.5" cy="40.5" r="15.5" fill="white"/>
</g>
<path d="M32.9795 34.3646C32.9795 34.2071 33.042 34.0561 33.1534 33.9447C33.2647 33.8334 33.4158 33.7708 33.5732 33.7708H34.015C34.7671 33.7708 35.2183 34.2767 35.4756 34.7469C35.6474 35.0604 35.7717 35.4238 35.8691 35.7531C35.8954 35.7511 35.9218 35.75 35.9482 35.75H45.8425C46.4996 35.75 46.9746 36.3786 46.7941 37.0111L45.3469 42.0849C45.2172 42.54 44.9427 42.9404 44.565 43.2255C44.1873 43.5107 43.727 43.665 43.2537 43.6651H38.5449C38.0679 43.6651 37.6041 43.5085 37.2248 43.2193C36.8455 42.93 36.5717 42.5243 36.4454 42.0643L35.8437 39.8698L34.8462 36.5068L34.8455 36.5005C34.722 36.0516 34.6064 35.6312 34.4338 35.3177C34.2683 35.0129 34.1353 34.9583 34.0158 34.9583H33.5732C33.4158 34.9583 33.2647 34.8958 33.1534 34.7844C33.042 34.6731 32.9795 34.522 32.9795 34.3646ZM36.9956 39.5816L37.5902 41.75C37.7089 42.1791 38.0992 42.4776 38.5449 42.4776H43.2537C43.4688 42.4776 43.6781 42.4075 43.8498 42.2779C44.0215 42.1483 44.1463 41.9664 44.2053 41.7595L45.5805 36.9375H36.2135L36.9845 39.5397L36.9956 39.5816Z" fill="#535399"/>
<path d="M39.7087 46.0416C39.7087 46.4616 39.5418 46.8643 39.2449 47.1612C38.948 47.4582 38.5453 47.625 38.1253 47.625C37.7054 47.625 37.3027 47.4582 37.0057 47.1612C36.7088 46.8643 36.542 46.4616 36.542 46.0416C36.542 45.6217 36.7088 45.219 37.0057 44.9221C37.3027 44.6251 37.7054 44.4583 38.1253 44.4583C38.5453 44.4583 38.948 44.6251 39.2449 44.9221C39.5418 45.219 39.7087 45.6217 39.7087 46.0416ZM38.5212 46.0416C38.5212 45.9367 38.4795 45.836 38.4052 45.7617C38.331 45.6875 38.2303 45.6458 38.1253 45.6458C38.0203 45.6458 37.9197 45.6875 37.8454 45.7617C37.7712 45.836 37.7295 45.9367 37.7295 46.0416C37.7295 46.1466 37.7712 46.2473 37.8454 46.3215C37.9197 46.3958 38.0203 46.4375 38.1253 46.4375C38.2303 46.4375 38.331 46.3958 38.4052 46.3215C38.4795 46.2473 38.5212 46.1466 38.5212 46.0416Z" fill="#535399"/>
<path d="M45.2507 46.0416C45.2507 46.4616 45.0838 46.8643 44.7869 47.1612C44.49 47.4582 44.0872 47.625 43.6673 47.625C43.2474 47.625 42.8447 47.4582 42.5477 47.1612C42.2508 46.8643 42.084 46.4616 42.084 46.0416C42.084 45.6217 42.2508 45.219 42.5477 44.9221C42.8447 44.6251 43.2474 44.4583 43.6673 44.4583C44.0872 44.4583 44.49 44.6251 44.7869 44.9221C45.0838 45.219 45.2507 45.6217 45.2507 46.0416ZM44.0632 46.0416C44.0632 45.9367 44.0214 45.836 43.9472 45.7617C43.873 45.6875 43.7723 45.6458 43.6673 45.6458C43.5623 45.6458 43.4617 45.6875 43.3874 45.7617C43.3132 45.836 43.2715 45.9367 43.2715 46.0416C43.2715 46.1466 43.3132 46.2473 43.3874 46.3215C43.4617 46.3958 43.5623 46.4375 43.6673 46.4375C43.7723 46.4375 43.873 46.3958 43.9472 46.3215C44.0214 46.2473 44.0632 46.1466 44.0632 46.0416Z" fill="#535399"/>
<path d="M96.1202 35.4575C95.3239 34.661 94.2682 34.1767 93.1451 34.0928C92.022 34.0088 90.906 34.3307 90.0002 35C89.0459 34.2902 87.8582 33.9684 86.6761 34.0993C85.4941 34.2302 84.4055 34.8041 83.6297 35.7054C82.8538 36.6068 82.4483 37.7686 82.4948 38.957C82.5413 40.1454 83.0363 41.272 83.8802 42.11L89.4677 47.6975C89.5374 47.7678 89.6204 47.8236 89.7118 47.8617C89.8032 47.8997 89.9012 47.9193 90.0002 47.9193C90.0992 47.9193 90.1972 47.8997 90.2886 47.8617C90.38 47.8236 90.463 47.7678 90.5327 47.6975L96.1202 42.11C96.5572 41.6733 96.9039 41.1547 97.1404 40.584C97.3769 40.0133 97.4986 39.4015 97.4986 38.7837C97.4986 38.1659 97.3769 37.5542 97.1404 36.9835C96.9039 36.4127 96.5572 35.8942 96.1202 35.4575ZM95.0627 41.0525L90.0002 46.1075L84.9377 41.0525C84.4916 40.6045 84.1877 40.0348 84.0641 39.4147C83.9406 38.7947 84.0029 38.152 84.2432 37.5672C84.4835 36.9825 84.8911 36.4817 85.415 36.1277C85.9388 35.7737 86.5555 35.5823 87.1877 35.5775C88.0323 35.5796 88.8415 35.9167 89.4377 36.515C89.5074 36.5853 89.5904 36.6411 89.6818 36.6792C89.7732 36.7172 89.8712 36.7368 89.9702 36.7368C90.0692 36.7368 90.1672 36.7172 90.2586 36.6792C90.35 36.6411 90.433 36.5853 90.5027 36.515C91.1165 35.9831 91.9093 35.7043 92.7209 35.735C93.5324 35.7657 94.302 36.1035 94.8738 36.6801C95.4457 37.2568 95.7771 38.0291 95.8011 38.8409C95.825 39.6526 95.5396 40.4432 95.0027 41.0525H95.0627Z" fill="#535399"/>
<path d="M142 39.6667H140V37.6667C140 37.4899 139.93 37.3203 139.805 37.1953C139.68 37.0702 139.51 37 139.333 37C139.156 37 138.987 37.0702 138.862 37.1953C138.737 37.3203 138.667 37.4899 138.667 37.6667V39.6667H136.667C136.49 39.6667 136.32 39.7369 136.195 39.8619C136.07 39.987 136 40.1565 136 40.3333C136 40.5101 136.07 40.6797 136.195 40.8047C136.32 40.9298 136.49 41 136.667 41H138.667V43C138.667 43.1768 138.737 43.3464 138.862 43.4714C138.987 43.5964 139.156 43.6667 139.333 43.6667C139.51 43.6667 139.68 43.5964 139.805 43.4714C139.93 43.3464 140 43.1768 140 43V41H142C142.177 41 142.346 40.9298 142.471 40.8047C142.596 40.6797 142.667 40.5101 142.667 40.3333C142.667 40.1565 142.596 39.987 142.471 39.8619C142.346 39.7369 142.177 39.6667 142 39.6667ZM146.473 46.5267L144 44.0733C144.96 42.8763 145.425 41.3569 145.299 39.8275C145.173 38.2982 144.466 36.8752 143.324 35.8511C142.181 34.827 140.689 34.2797 139.155 34.3216C137.621 34.3636 136.162 34.9917 135.077 36.0768C133.992 37.1618 133.364 38.6214 133.322 40.1553C133.28 41.6892 133.827 43.1809 134.851 44.3237C135.875 45.4664 137.298 46.1734 138.827 46.2992C140.357 46.425 141.876 45.9601 143.073 45L145.527 47.4533C145.589 47.5158 145.662 47.5654 145.744 47.5993C145.825 47.6331 145.912 47.6505 146 47.6505C146.088 47.6505 146.175 47.6331 146.256 47.5993C146.338 47.5654 146.411 47.5158 146.473 47.4533C146.593 47.329 146.661 47.1629 146.661 46.99C146.661 46.8171 146.593 46.651 146.473 46.5267ZM139.333 45C138.41 45 137.508 44.7263 136.741 44.2135C135.973 43.7007 135.375 42.9719 135.022 42.1192C134.669 41.2665 134.576 40.3282 134.756 39.4229C134.936 38.5177 135.381 37.6861 136.033 37.0335C136.686 36.3809 137.518 35.9364 138.423 35.7563C139.328 35.5763 140.266 35.6687 141.119 36.0219C141.972 36.3751 142.701 36.9732 143.213 37.7407C143.726 38.5081 144 39.4104 144 40.3333C144 41.571 143.508 42.758 142.633 43.6332C141.758 44.5083 140.571 45 139.333 45Z" fill="#535399"/>
<defs>
<filter id="filter0_d_91_1265" x="0" y="0" width="81" height="81" filterUnits="userSpaceOnUse" color-interpolation-filters="sRGB">
<feFlood flood-opacity="0" result="BackgroundImageFix"/>
<feColorMatrix in="SourceAlpha" type="matrix" values="0 0 0 0 0 0 0 0 0 0 0 0 0 0 0 0 0 0 127 0" result="hardAlpha"/>
<feOffset/>
<feGaussianBlur stdDeviation="12.5"/>
<feColorMatrix type="matrix" values="0 0 0 0 0 0 0 0 0 0 0 0 0 0 0 0 0 0 0.05 0"/>
<feBlend mode="normal" in2="BackgroundImageFix" result="effect1_dropShadow_91_1265"/>
<feBlend mode="normal" in="SourceGraphic" in2="effect1_dropShadow_91_1265" result="shape"/>
</filter>
<filter id="filter1_d_91_1265" x="50" y="0" width="81" height="81" filterUnits="userSpaceOnUse" color-interpolation-filters="sRGB">
<feFlood flood-opacity="0" result="BackgroundImageFix"/>
<feColorMatrix in="SourceAlpha" type="matrix" values="0 0 0 0 0 0 0 0 0 0 0 0 0 0 0 0 0 0 127 0" result="hardAlpha"/>
<feOffset/>
<feGaussianBlur stdDeviation="12.5"/>
<feColorMatrix type="matrix" values="0 0 0 0 0 0 0 0 0 0 0 0 0 0 0 0 0 0 0.05 0"/>
<feBlend mode="normal" in2="BackgroundImageFix" result="effect1_dropShadow_91_1265"/>
<feBlend mode="normal" in="SourceGraphic" in2="effect1_dropShadow_91_1265" result="shape"/>
</filter>
<filter id="filter2_d_91_1265" x="100" y="0" width="81" height="81" filterUnits="userSpaceOnUse" color-interpolation-filters="sRGB">
<feFlood flood-opacity="0" result="BackgroundImageFix"/>
<feColorMatrix in="SourceAlpha" type="matrix" values="0 0 0 0 0 0 0 0 0 0 0 0 0 0 0 0 0 0 127 0" result="hardAlpha"/>
<feOffset/>
<feGaussianBlur stdDeviation="12.5"/>
<feColorMatrix type="matrix" values="0 0 0 0 0 0 0 0 0 0 0 0 0 0 0 0 0 0 0.05 0"/>
<feBlend mode="normal" in2="BackgroundImageFix" result="effect1_dropShadow_91_1265"/>
<feBlend mode="normal" in="SourceGraphic" in2="effect1_dropShadow_91_1265" result="shape"/>
</filter>
</defs>
</svg>
