<svg width="103" height="25" viewBox="0 0 103 25" fill="none" xmlns="http://www.w3.org/2000/svg">
<circle cx="12.5" cy="12.5" r="12.5" fill="#5625DF"/>
<path d="M13.932 17.9981V12.5341H15.7753L16.0493 10.3948H13.932V9.03211C13.932 8.41478 14.104 7.99211 14.99 7.99211H16.1127V6.08478C15.5664 6.02624 15.0174 5.99797 14.468 6.00011C12.8387 6.00011 11.72 6.99478 11.72 8.82078V10.3908H9.88867V12.5301H11.724V17.9981H13.932Z" fill="white"/>
<circle cx="90.5" cy="12.5" r="12.5" fill="#37DAF3"/>
<path d="M97.7623 7.29115C97.2057 7.53781 96.6077 7.70448 95.979 7.77981C96.6277 7.39167 97.113 6.78079 97.3443 6.06115C96.7349 6.42314 96.0679 6.67794 95.3723 6.81448C94.9046 6.31506 94.285 5.98403 93.6099 5.87279C92.9347 5.76156 92.2417 5.87634 91.6385 6.19931C91.0353 6.52229 90.5555 7.03539 90.2738 7.65895C89.992 8.28251 89.924 8.98165 90.0803 9.64781C88.8455 9.58581 87.6374 9.26484 86.5346 8.70575C85.4318 8.14665 84.4589 7.36192 83.679 6.40248C83.4123 6.86248 83.259 7.39581 83.259 7.96381C83.2587 8.47514 83.3846 8.97864 83.6256 9.42963C83.8665 9.88063 84.2151 10.2652 84.6403 10.5491C84.1472 10.5335 83.6649 10.4002 83.2337 10.1605V10.2005C83.2336 10.9176 83.4817 11.6127 83.9358 12.1678C84.3899 12.7229 85.022 13.1038 85.725 13.2458C85.2675 13.3696 84.7879 13.3879 84.3223 13.2991C84.5207 13.9162 84.907 14.4558 85.4272 14.8424C85.9475 15.229 86.5756 15.4433 87.2237 15.4551C86.1236 16.3188 84.7649 16.7872 83.3663 16.7851C83.1186 16.7852 82.8711 16.7707 82.625 16.7418C84.0447 17.6546 85.6972 18.139 87.385 18.1371C93.0983 18.1371 96.2217 13.4051 96.2217 9.30115C96.2217 9.16781 96.2183 9.03315 96.2123 8.89981C96.8199 8.46046 97.3443 7.91641 97.761 7.29315L97.7623 7.29115Z" fill="white"/>
<circle cx="51.5" cy="12.5" r="12.5" fill="#FF27B7"/>
<path d="M56.9647 9.53684C56.958 9.03192 56.8635 8.53202 56.6854 8.0595C56.5309 7.66094 56.2951 7.29897 55.9928 6.99672C55.6906 6.69448 55.3286 6.4586 54.93 6.30417C54.4636 6.12907 53.9708 6.0344 53.4727 6.02417C52.8314 5.9955 52.628 5.9875 51 5.9875C49.372 5.9875 49.1634 5.9875 48.5267 6.02417C48.0288 6.03447 47.5363 6.12915 47.07 6.30417C46.6714 6.4585 46.3094 6.69433 46.0071 6.99659C45.7049 7.29885 45.469 7.66088 45.3147 8.0595C45.1393 8.52559 45.0448 9.01824 45.0354 9.51617C45.0067 10.1582 44.998 10.3615 44.998 11.9895C44.998 13.6175 44.998 13.8255 45.0354 14.4628C45.0454 14.9615 45.1394 15.4535 45.3147 15.9208C45.4693 16.3193 45.7053 16.6812 46.0077 16.9834C46.31 17.2855 46.6721 17.5212 47.0707 17.6755C47.5357 17.8576 48.0283 17.9591 48.5274 17.9755C49.1694 18.0042 49.3727 18.0128 51.0007 18.0128C52.6287 18.0128 52.8374 18.0128 53.474 17.9755C53.9721 17.9657 54.465 17.8712 54.9314 17.6962C55.3298 17.5416 55.6917 17.3056 55.9939 17.0034C56.2962 16.7012 56.5321 16.3393 56.6867 15.9408C56.862 15.4742 56.956 14.9822 56.966 14.4828C56.9947 13.8415 57.0034 13.6382 57.0034 12.0095C57.002 10.3815 57.002 10.1748 56.9647 9.53684ZM50.996 15.0682C49.2934 15.0682 47.914 13.6888 47.914 11.9862C47.914 10.2835 49.2934 8.90417 50.996 8.90417C51.8134 8.90417 52.5974 9.22888 53.1754 9.80687C53.7533 10.3849 54.078 11.1688 54.078 11.9862C54.078 12.8036 53.7533 13.5875 53.1754 14.1655C52.5974 14.7435 51.8134 15.0682 50.996 15.0682ZM54.2007 9.50884C53.8027 9.50884 53.482 9.1875 53.482 8.79017C53.482 8.69584 53.5006 8.60243 53.5367 8.51528C53.5728 8.42812 53.6257 8.34893 53.6924 8.28223C53.7591 8.21553 53.8383 8.16262 53.9255 8.12652C54.0126 8.09042 54.106 8.07184 54.2004 8.07184C54.2947 8.07184 54.3881 8.09042 54.4753 8.12652C54.5624 8.16262 54.6416 8.21553 54.7083 8.28223C54.775 8.34893 54.8279 8.42812 54.864 8.51528C54.9001 8.60243 54.9187 8.69584 54.9187 8.79017C54.9187 9.1875 54.5974 9.50884 54.2007 9.50884Z" fill="white"/>
<path d="M50.9961 13.9878C52.1018 13.9878 52.9981 13.0915 52.9981 11.9858C52.9981 10.8801 52.1018 9.98381 50.9961 9.98381C49.8905 9.98381 48.9941 10.8801 48.9941 11.9858C48.9941 13.0915 49.8905 13.9878 50.9961 13.9878Z" fill="white"/>
</svg>
